<?xml version="1.0" standalone="no"?>
<!DOCTYPE svg PUBLIC "-//W3C//DTD SVG 20010904//EN"
 "http://www.w3.org/TR/2001/REC-SVG-20010904/DTD/svg10.dtd">
<svg version="1.0" xmlns="http://www.w3.org/2000/svg"
 width="595.000000pt" height="595.000000pt" viewBox="0 0 595.000000 595.000000"
 preserveAspectRatio="xMidYMid meet">
<metadata>
Created by potrace 1.11, written by Peter Selinger 2001-2013
</metadata>
<g transform="translate(0.000000,595.000000) scale(0.100000,-0.100000)"
fill="#000000" stroke="none">
<path d="M898 5877 c-134 -61 -158 -76 -163 -97 -14 -70 -36 -277 -46 -446
-36 -584 49 -1306 215 -1829 l24 -75 -62 -32 c-37 -20 -92 -64 -141 -113 -75
-75 -89 -97 -230 -354 -178 -325 -172 -312 -196 -429 -31 -156 -20 -283 35
-390 32 -61 55 -87 146 -163 41 -35 116 -101 167 -147 l92 -83 -102 -137
c-126 -168 -159 -238 -165 -346 -15 -255 127 -433 546 -685 459 -276 996 -461
1532 -526 601 -74 1304 33 1889 287 476 207 911 512 1008 706 39 77 57 161 49
225 -7 63 -53 163 -98 213 -19 22 -72 88 -116 148 l-82 109 22 25 c13 13 92
85 177 160 165 145 201 188 225 260 40 123 40 248 0 406 -16 63 -275 545 -350
652 -46 66 -111 123 -205 180 l-58 35 15 47 c33 106 95 356 123 492 84 417
121 883 101 1292 -10 213 -43 526 -58 539 -4 4 -78 39 -166 78 l-158 71 -1907
-1 -1906 -1 -157 -71z m4254 -187 c17 -197 25 -587 17 -805 -16 -436 -66 -795
-164 -1184 -27 -110 -114 -395 -142 -468 -4 -9 5 -13 34 -13 53 0 129 -40 185
-97 25 -26 137 -178 247 -337 226 -324 248 -370 239 -490 -12 -141 -84 -225
-401 -465 -97 -74 -177 -135 -177 -136 0 -1 59 -76 130 -166 190 -238 247
-366 220 -493 -21 -101 -75 -162 -266 -299 -442 -317 -985 -544 -1504 -626
-224 -36 -290 -40 -655 -37 -305 3 -380 6 -490 24 -607 96 -1155 325 -1629
681 -185 139 -224 201 -213 344 7 106 67 215 227 414 l130 163 -87 62 c-138
100 -307 234 -371 292 -102 95 -143 202 -121 320 19 106 19 107 436 702 63 92
140 147 221 160 l40 6 -34 102 c-143 424 -233 897 -264 1396 -17 282 -10 747
16 983 l6 57 2181 -2 2182 -3 7 -85z"/>
<path d="M924 5563 c-5 -32 -9 -222 -9 -423 0 -349 9 -521 38 -760 l12 -95
1997 -3 1996 -2 6 47 c38 289 57 803 41 1136 l-7 157 -2033 0 -2034 0 -7 -57z
m603 -225 l126 -3 -99 -74 c-54 -41 -100 -75 -101 -76 -2 -1 15 -55 37 -120
22 -65 38 -120 36 -122 -2 -2 -46 28 -99 67 -52 38 -99 70 -105 70 -6 0 -52
-31 -104 -69 -51 -38 -94 -66 -96 -61 -2 4 13 57 33 117 19 61 35 113 35 116
0 3 -45 39 -101 79 l-100 73 127 5 128 5 33 105 c18 58 36 112 39 120 4 9 23
-36 46 -107 l39 -122 126 -3z m623 129 l35 -112 130 -5 130 -5 -102 -78 c-57
-43 -103 -79 -103 -80 0 -2 18 -56 40 -122 22 -65 39 -120 37 -121 -1 -2 -49
31 -105 72 l-102 75 -102 -75 c-56 -41 -104 -74 -105 -72 -2 1 15 56 37 121
22 66 40 120 40 122 0 1 -46 37 -102 80 l-103 78 129 5 130 5 35 113 c19 61
37 112 40 112 3 0 22 -51 41 -113z m998 -139 l125 -3 -99 -74 c-54 -41 -100
-75 -101 -76 -2 -1 15 -55 37 -120 22 -65 38 -120 36 -122 -2 -2 -46 28 -99
67 -52 38 -99 70 -104 70 -5 0 -51 -31 -103 -70 -52 -38 -96 -66 -98 -62 -1 4
14 54 33 112 19 57 35 109 35 116 0 6 -46 46 -101 88 l-102 75 128 3 128 3 41
120 40 120 39 -122 39 -122 126 -3z m810 0 l125 -3 -96 -73 c-53 -40 -97 -78
-97 -86 0 -7 16 -62 35 -122 18 -59 33 -110 31 -111 -1 -2 -46 29 -98 67 -53
39 -100 70 -105 70 -5 0 -51 -31 -103 -70 -52 -38 -96 -66 -98 -62 -1 4 14 54
33 112 19 57 35 109 35 116 0 6 -46 46 -101 88 l-102 75 128 3 128 3 41 120
40 120 39 -122 40 -122 125 -3z m800 0 l125 -3 -96 -73 c-53 -40 -97 -78 -97
-85 0 -6 16 -61 35 -122 19 -60 33 -111 31 -112 -1 -2 -46 29 -98 67 -53 39
-100 70 -105 70 -5 0 -52 -32 -104 -70 -51 -39 -95 -67 -96 -63 -2 5 13 55 32
113 19 57 35 109 35 116 0 6 -46 46 -101 88 l-102 75 128 3 128 3 41 120 40
120 39 -122 40 -122 125 -3z m-968 -451 l36 -112 127 -5 128 -5 -100 -75 c-56
-41 -101 -76 -101 -79 0 -2 16 -53 35 -114 20 -60 34 -114 33 -119 -2 -5 -46
23 -97 62 -52 38 -98 70 -102 70 -4 0 -50 -31 -102 -70 -52 -38 -97 -70 -100
-70 -2 0 13 55 34 122 22 66 38 122 37 123 -2 1 -50 37 -107 79 l-104 76 131
0 132 0 37 119 c21 66 40 117 43 115 2 -3 21 -56 40 -117z m800 0 l36 -112
129 -5 129 -5 -100 -74 c-54 -41 -101 -75 -103 -77 -1 -1 14 -53 34 -113 20
-61 35 -115 33 -121 -2 -5 -46 22 -98 60 -52 39 -98 70 -102 70 -3 0 -53 -34
-109 -76 -56 -42 -100 -70 -97 -63 24 66 79 241 77 243 -2 2 -50 38 -107 80
l-103 76 130 0 131 0 37 119 c21 66 40 117 43 115 2 -3 21 -56 40 -117z"/>
<path d="M1007 4033 c8 -43 19 -95 24 -115 l10 -38 624 0 625 0 0 115 0 115
-649 0 -649 0 15 -77z m1241 -15 l-3 -53 -90 -3 c-49 -2 -298 0 -552 3 l-463
7 -10 37 c-5 20 -10 42 -10 49 0 9 120 12 566 12 l565 0 -3 -52z"/>
<path d="M2450 3915 l0 -195 -685 0 c-377 0 -685 -4 -685 -9 0 -24 89 -306
142 -448 l60 -163 589 0 589 0 0 -789 0 -789 88 -65 c121 -90 255 -176 344
-222 l75 -39 109 62 c60 35 159 98 219 140 l110 77 3 812 2 813 616 2 617 3
39 100 c42 108 114 325 146 443 l20 72 -714 0 -714 0 0 195 0 195 -485 0 -485
0 0 -195z"/>
<path d="M3580 3995 l0 -115 654 0 653 0 17 88 c9 48 19 99 22 115 l6 27 -676
0 -676 0 0 -115z m1237 29 c-6 -25 -19 -50 -28 -55 -11 -5 -243 -8 -586 -7
l-568 3 -3 53 -3 52 599 0 599 0 -10 -46z"/>
<path d="M993 3081 c-17 -11 -50 -43 -73 -72 -32 -40 -38 -54 -29 -65 10 -12
18 -8 50 21 21 19 50 37 64 41 28 7 110 1 137 -11 16 -6 16 -4 1 35 -27 67
-89 88 -150 51z"/>
<path d="M4817 3059 c-29 -22 -74 -99 -58 -99 5 0 12 4 16 9 3 5 29 15 59 22
62 14 108 3 157 -38 22 -19 33 -23 41 -15 8 8 3 23 -17 53 -59 84 -139 111
-198 68z"/>
<path d="M1360 2935 c0 -3 22 -50 49 -104 187 -372 430 -709 728 -1011 l163
-165 0 643 0 642 -470 0 c-259 0 -470 -2 -470 -5z m890 -577 l-1 -523 -111
115 c-235 245 -469 573 -617 868 l-31 62 380 0 380 0 0 -522z"/>
<path d="M3570 2280 c0 -456 3 -660 11 -660 19 0 364 355 437 450 40 52 92
120 117 150 104 126 280 410 389 628 l46 92 -500 0 -500 0 0 -660z m795 493
c-161 -302 -378 -601 -614 -844 l-120 -124 -1 538 0 537 396 0 396 0 -57 -107z"/>
<path d="M1030 2840 c0 -42 42 -84 73 -74 30 9 30 9 23 48 -7 38 -30 56 -70
56 -22 0 -26 -4 -26 -30z"/>
<path d="M4843 2848 c-23 -11 -49 -70 -38 -88 20 -33 100 28 93 71 -3 27 -23
33 -55 17z"/>
<path d="M673 2638 c-149 -214 -166 -246 -167 -319 -1 -76 27 -115 156 -222
86 -71 335 -257 375 -280 6 -4 28 4 48 17 59 40 128 51 208 32 78 -18 125 -40
219 -103 106 -71 174 -69 262 8 44 39 46 43 46 93 0 50 -4 58 -66 137 -36 46
-82 101 -102 122 -57 59 -193 165 -342 264 -169 113 -234 165 -387 309 -67 63
-123 114 -125 114 -2 0 -58 -78 -125 -172z"/>
<path d="M4985 2682 c-144 -141 -223 -204 -430 -342 -200 -133 -271 -192 -345
-287 -82 -105 -100 -139 -100 -184 0 -50 28 -82 105 -120 82 -40 122 -36 208
20 168 109 323 130 423 56 l30 -23 105 76 c243 176 402 314 425 369 21 48 17
112 -10 168 -26 55 -256 387 -271 391 -6 2 -68 -54 -140 -124z"/>
<path d="M1235 2690 c-24 -25 -36 -44 -29 -48 5 -4 39 -28 75 -53 35 -25 77
-55 94 -65 l29 -19 -32 58 c-18 31 -46 82 -63 112 -17 30 -31 55 -33 55 -1 0
-20 -18 -41 -40z"/>
<path d="M4624 2692 c-11 -20 -40 -73 -64 -117 l-44 -80 29 19 c60 38 151 105
162 118 8 10 2 23 -26 55 l-36 42 -21 -37z"/>
<path d="M1951 1739 c-98 -242 -150 -384 -143 -391 16 -16 267 -99 402 -134
158 -39 334 -71 452 -80 l83 -6 -88 56 c-191 121 -398 287 -579 464 -113 110
-118 114 -127 91z m324 -330 c39 -31 108 -82 155 -114 110 -75 111 -77 70 -69
-138 24 -346 83 -546 156 l-81 29 51 139 50 140 116 -113 c63 -63 147 -138
185 -168z"/>
<path d="M3938 1737 c-24 -36 -281 -267 -403 -362 -60 -47 -156 -116 -212
-153 -55 -37 -109 -73 -120 -80 -41 -29 281 14 482 64 188 47 425 127 425 142
0 4 -20 63 -44 132 -25 69 -55 158 -68 199 -13 41 -28 76 -34 78 -6 2 -18 -7
-26 -20z m61 -192 l48 -130 -31 -14 c-145 -65 -617 -197 -616 -172 1 3 38 31
83 61 123 82 267 201 370 305 51 51 93 90 95 86 2 -3 25 -64 51 -136z"/>
<path d="M1201 1721 c7 -20 117 -96 290 -200 94 -56 172 -101 173 -99 3 4 56
137 56 141 0 2 -27 1 -59 -1 -71 -5 -141 16 -209 63 -27 18 -75 46 -108 63
-64 32 -149 52 -143 33z"/>
<path d="M4635 1709 c-16 -5 -57 -25 -90 -44 -122 -71 -167 -89 -230 -90 -33
0 -77 4 -97 8 l-37 9 29 -78 c16 -42 33 -81 38 -86 21 -21 369 187 477 283 12
12 -51 10 -90 -2z"/>
<path d="M952 1460 c-169 -213 -212 -287 -212 -369 0 -58 32 -96 167 -196 499
-369 1098 -597 1725 -656 192 -18 667 -7 833 19 566 89 1067 289 1510 605 227
162 249 209 166 363 -34 65 -266 364 -282 364 -21 0 -76 -35 -121 -77 -109
-101 -376 -248 -613 -338 -740 -281 -1525 -288 -2270 -20 -263 95 -570 261
-675 367 -49 49 -79 68 -107 68 -11 0 -57 -49 -121 -130z m533 -241 c55 -15
131 -92 140 -142 4 -21 6 -39 4 -41 -2 -1 -26 -1 -52 2 -43 4 -50 8 -58 32
-18 50 -119 81 -127 39 -2 -9 26 -48 61 -86 91 -100 107 -163 55 -228 -29 -38
-70 -55 -130 -55 -119 1 -218 91 -218 198 0 59 8 64 68 47 l52 -16 -6 -38 c-5
-33 -3 -40 26 -64 34 -29 87 -36 108 -15 24 24 12 57 -44 120 -83 93 -99 140
-69 198 29 55 101 74 190 49z m3196 -166 c131 -121 177 -169 167 -175 -7 -5
-30 -18 -52 -29 l-38 -20 -75 72 c-58 57 -77 70 -84 58 -5 -8 -9 -57 -10 -109
-2 -153 3 -149 -114 -78 -131 79 -125 77 -115 31 4 -21 11 -68 15 -104 l6 -65
-51 -28 c-28 -15 -53 -26 -54 -24 -6 5 -93 493 -90 497 2 2 68 -37 147 -86
l144 -90 7 90 c3 50 6 121 6 159 0 37 2 68 6 68 3 0 86 -75 185 -167z m-2696
-67 c65 -26 121 -48 123 -50 3 -4 -28 -86 -33 -86 -3 0 -153 57 -195 74 -12 5
-19 -3 -29 -29 -7 -20 -11 -38 -9 -39 1 -2 47 -20 101 -41 53 -20 97 -41 97
-45 0 -4 -7 -24 -15 -44 -18 -42 -10 -43 -136 9 l-84 33 -16 -36 c-35 -80 -36
-77 33 -102 35 -13 82 -31 105 -41 42 -18 42 -18 31 -51 -6 -18 -14 -37 -19
-42 -6 -7 -299 94 -318 110 -4 3 18 61 119 321 l51 132 37 -14 c20 -7 91 -34
157 -59z m1965 -238 c138 -127 215 -205 207 -209 -6 -3 -33 -12 -59 -19 l-48
-13 -46 43 c-25 23 -51 40 -57 37 -7 -2 -52 -17 -102 -31 -49 -15 -95 -34
-102 -43 -6 -8 -14 -36 -18 -63 l-7 -49 -59 -20 c-41 -14 -59 -16 -59 -8 -1
16 123 577 127 577 2 0 102 -91 223 -202z m-1534 100 c159 -58 169 -235 15
-275 l-31 -8 64 -115 c35 -63 61 -116 58 -117 -4 -2 -36 5 -71 15 l-64 17 -56
105 -56 105 -20 -87 -20 -88 -35 6 c-19 4 -45 10 -56 15 l-22 8 23 98 c13 54
38 159 56 234 l32 136 66 -15 c36 -8 89 -23 117 -34z m995 -268 c21 -129 36
-236 35 -237 -1 -1 -27 -5 -57 -9 l-55 -6 -33 213 c-18 118 -35 226 -38 241
-5 24 -2 27 28 31 89 11 79 30 120 -233z m-677 210 c29 0 35 -6 100 -126 55
-99 72 -122 81 -112 6 7 42 61 79 121 l68 107 65 0 65 0 -29 -48 c-137 -231
-259 -431 -263 -432 -6 0 -254 467 -259 488 -2 12 4 14 29 8 18 -3 47 -6 64
-6z"/>
<path d="M3787 733 c-7 -11 -20 -103 -15 -103 15 0 98 33 98 39 0 9 -63 71
-72 71 -4 0 -9 -3 -11 -7z"/>
<path d="M2312 729 c-7 -28 -10 -55 -6 -60 9 -15 100 -11 114 5 28 34 -7 80
-76 100 -18 5 -22 0 -32 -45z"/>
</g>
</svg>
